<?xml version="1.0" encoding="utf-8"?>
<!-- Generator: Adobe Illustrator 24.1.2, SVG Export Plug-In . SVG Version: 6.00 Build 0)  -->
<svg version="1.1" id="Layer_1" xmlns="http://www.w3.org/2000/svg" xmlns:xlink="http://www.w3.org/1999/xlink" x="0px" y="0px"
	 viewBox="0 0 377.8 160.6" style="enable-background:new 0 0 377.8 160.6;" xml:space="preserve">
<style type="text/css">
	.st0{fill-rule:evenodd;clip-rule:evenodd;fill:#FFFFFF;}
	.st1{fill:#231F20;}
	.st2{fill-rule:evenodd;clip-rule:evenodd;fill:#F58220;}
	.st3{fill:none;stroke:#231F20;stroke-width:1.0337;stroke-miterlimit:10;}
	.st4{fill-rule:evenodd;clip-rule:evenodd;fill:#F47920;}
	.st5{fill-rule:evenodd;clip-rule:evenodd;fill:#231F20;}
	.st6{fill:none;stroke:#231F20;stroke-width:0.2481;stroke-miterlimit:10;}
	.st7{fill:none;stroke:#231F20;stroke-width:1.7277;stroke-miterlimit:10;}
</style>
<rect class="st0" width="377.8" height="160.6"/>
<g>
	<path class="st1" d="M233.3,62.2v36.1c0,1.3-0.7,2.5-1.8,3.3c-1,0.8-2.3,1.2-3.8,1.2h-77.6c-1.5,0-2.9-0.4-3.8-1.2
		c-1.1-0.8-1.8-2-1.8-3.3V62.2c0-1.3,0.7-2.5,1.8-3.3c1-0.8,2.4-1.2,3.8-1.2h77.6c1.5,0,2.9,0.4,3.8,1.2
		C232.6,59.8,233.3,61,233.3,62.2L233.3,62.2z"/>
	<path class="st0" d="M231.1,98.3L231.1,98.3V62.2c0-0.6-0.3-1.1-0.8-1.5c-0.6-0.5-1.5-0.8-2.5-0.8h-77.6c-1,0-1.9,0.3-2.5,0.8
		c-0.5,0.4-0.8,0.9-0.8,1.5v36.1c0,0.6,0.3,1.1,0.8,1.5c0.6,0.5,1.5,0.8,2.5,0.8h77.6c1,0,1.9-0.3,2.5-0.8
		C230.7,99.4,231.1,98.9,231.1,98.3L231.1,98.3z M170.2,79.1L170.2,79.1h3.2c0.4,0,0.8-0.4,0.8-0.8v-4.8c0-0.4-0.5-0.8-0.8-0.8h-3.2
		H167c-0.4,0-0.7,0.4-0.8,0.8l-1.6,4.8c-0.1,0.3,0.4,0.8,0.8,0.8H170.2L170.2,79.1z M170.2,70.4L170.2,70.4h-4.8
		c-0.9,0-1.3,0.7-1.6,1.5l-3.2,8v10.3c0,0.9,0.8,1.5,1.6,1.5h1.7c0-0.2-0.1-0.5-0.1-0.8c0-3.5,2.8-6.4,6.3-6.4l0,0
		c3.6,0,6.4,2.9,6.4,6.4c0,0.3,0,0.6-0.1,0.8h12h7.9c0.4,0,0.8-0.4,0.8-0.8v-4.8c0-0.4-0.4-0.8-0.8-0.8h-7.9h-10.4V71.9
		c0-0.6-0.6-1.5-1.5-1.5L170.2,70.4L170.2,70.4z M188.6,64L188.6,64h-6.4c-1.3,0-2.4,1.1-2.4,2.4v15.9c0,1.3,1.1,2.4,2.4,2.4h6.4h15
		h10h1.1c1.3,0,2.4-1.1,2.4-2.4V66.4c0-1.3-1.1-2.4-2.4-2.4h-1.1h-10H188.6L188.6,64z M213.7,85.4L213.7,85.4h-2.9
		c-0.4,0-0.8,0.3-0.8,0.8v4c0,0.4,0.3,0.8,0.8,0.8h2.9h2.7c0.4,0,0.8-0.3,0.8-0.8v-4.1c0-0.4-0.3-0.8-0.8-0.8L213.7,85.4L213.7,85.4
		z M203.6,85.5L203.6,85.5L203.6,85.5c-3,0-5.6,2.5-5.6,5.5s2.5,5.6,5.6,5.6s5.6-2.5,5.6-5.6C209.2,88,206.7,85.5,203.6,85.5
		L203.6,85.5z M203.6,93.4L203.6,93.4c1.3,0,2.4-1.1,2.4-2.4c0-1.3-1.1-2.3-2.4-2.3v0c-1.3,0-2.4,1.1-2.4,2.4S202.3,93.4,203.6,93.4
		L203.6,93.4z M170.2,85.5L170.2,85.5L170.2,85.5c-3,0-5.6,2.5-5.6,5.5s2.5,5.6,5.6,5.6c3,0,5.6-2.5,5.6-5.6
		C175.8,88,173.3,85.5,170.2,85.5L170.2,85.5z M170.2,93.4L170.2,93.4c1.3,0,2.4-1.1,2.4-2.4c0-1.3-1.1-2.3-2.4-2.3v0
		c-1.3,0-2.4,1.1-2.4,2.4S168.9,93.4,170.2,93.4L170.2,93.4z"/>
	<polygon class="st2" points="182.9,67.1 182.9,81.6 214.1,81.6 214.1,67.1 	"/>
	<rect x="149.5" y="61.6" class="st0" width="73.6" height="36.5"/>
	<g>
		<rect x="176.6" y="63.1" class="st3" width="24.5" height="22.2"/>
		<rect x="180.2" y="66.7" class="st4" width="17.3" height="15.7"/>
		<rect x="173.2" y="86.9" class="st5" width="31.4" height="1.4"/>
		<rect x="174.4" y="89.1" class="st5" width="3.5" height="8.9"/>
		<rect x="174.4" y="89.1" class="st6" width="3.5" height="8.9"/>
		<rect x="179.2" y="89.1" class="st5" width="3.5" height="8.9"/>
		<rect x="179.2" y="89.1" class="st6" width="3.5" height="8.9"/>
		<rect x="195.1" y="89.1" class="st5" width="3.5" height="8.9"/>
		<rect x="195.1" y="89.1" class="st6" width="3.5" height="8.9"/>
		<rect x="199.9" y="89.1" class="st5" width="3.5" height="8.9"/>
		<rect x="199.9" y="89.1" class="st6" width="3.5" height="8.9"/>
		<line class="st7" x1="182" y1="93.1" x2="196" y2="93.1"/>
		<path class="st1" d="M191.6,93.1c0,1.3-1.1,2.4-2.4,2.4s-2.4-1.1-2.4-2.4s1.1-2.4,2.4-2.4S191.6,91.8,191.6,93.1"/>
	</g>
</g>
</svg>
